<?xml version="1.0" standalone="no"?><!DOCTYPE svg PUBLIC "-//W3C//DTD SVG 1.1//EN" "http://www.w3.org/Graphics/SVG/1.1/DTD/svg11.dtd"><svg t="1687072778851" class="icon" viewBox="0 0 1024 1024" version="1.1" xmlns="http://www.w3.org/2000/svg" p-id="10980" width="16" height="16" xmlns:xlink="http://www.w3.org/1999/xlink"><path d="M966.656 73.728q25.6 58.368 33.792 110.592 3.072 22.528 3.072 46.08t-5.632 45.056-18.944 40.448-35.84 31.232q-2.048 2.048-5.12 2.56t-5.12 2.56q14.336 36.864 21.504 76.8t7.168 81.92q0 93.184-35.328 174.592t-95.744 142.336-142.336 96.256-174.08 35.328q-93.184 0-174.592-35.328t-142.336-96.256-96.256-142.336-35.328-174.592q0-81.92 28.672-156.672l-7.168-4.096-7.168-3.072q-23.552-12.288-36.352-31.232t-18.944-40.448-5.632-45.056 3.584-46.08q8.192-52.224 33.792-110.592 11.264 34.816 25.6 68.608 12.288 28.672 29.696 58.368t37.888 49.152q61.44-86.016 156.16-136.192t208.384-50.176q55.296 0 107.52 13.312t98.304 37.376 85.504 57.856 70.144 75.776q20.48-20.48 36.864-49.664t28.672-56.832q14.336-32.768 25.6-67.584zM248.832 274.432q13.312 43.008 28.672 78.848 13.312 30.72 29.696 59.904t33.792 37.376q17.408 9.216 36.864 1.536t35.84-20.992q18.432-15.36 37.888-38.912zM766.976 638.976q1.024-2.048 1.024-7.168t-1.536-11.264-6.144-11.264-12.8-8.192q-23.552 28.672-58.368 51.2-29.696 19.456-75.264 35.328t-107.008 15.872q-60.416 0-103.936-15.872t-73.216-35.328q-33.792-22.528-57.344-51.2-8.192 2.048-12.288 7.168t-6.144 11.264-2.048 11.264 1.024 8.192q1.024 1.024 1.024 3.072 9.216 27.648 32.768 51.712t57.344 41.984 76.288 27.648 89.6 9.728q93.184 0 160.768-33.792t92.16-89.088q0-2.048 1.024-4.096t3.072-7.168zM681.984 450.56q17.408-8.192 33.792-37.376t29.696-59.904q15.36-35.84 28.672-78.848l-202.752 117.76q19.456 23.552 37.888 38.912 16.384 13.312 35.84 20.992t36.864-1.536z" p-id="10981" fill="#13227a"></path></svg>